<svg width="725" height="430" version="1.1" viewBox="0 0 192 114" xmlns="http://www.w3.org/2000/svg">
 <path d="m27.7 0c-1.19 0-2.33 0.432-3.41 1.3-0.975 0.868-1.57 1.9-1.79 3.09l-6.22 29.1h137l6.22-29.1c0.217-1.19-0.056-2.22-0.813-3.09-0.65-0.866-1.57-1.3-2.76-1.3h-32.5zm-14 45.5-13.6 63.9c-0.217 1.19 0 2.22 0.65 3.09 0.758 0.867 1.73 1.3 2.93 1.3h31c1.19 0 2.28-0.432 3.25-1.3 1.08-0.866 1.73-1.9 1.95-3.09l6.5-30.6h38.5c1.19 0 2.32-0.436 3.41-1.3 1.1-0.865 1.65-1.92 1.95-3.09l5.2-24.5c0.254-1.18-0.194-2.27-0.65-3.09-0.456-0.822-1.9-1.3-2.76-1.3zm95.8 0-13.6 63.8c-0.217 1.19-2.4e-4 2.22 0.649 3.09 0.758 0.866 1.73 1.3 2.92 1.3h81.9c1.19 0 2.27-0.432 3.25-1.3 1.08-0.866 1.73-1.9 1.95-3.09l5.2-24.5c0.324-1.19 0.103-2.22-0.65-3.09-0.65-0.866-1.57-1.3-2.76-1.3h-45l7.46-34.9z" fill="#4170f5" opacity="1" stroke-miterlimit="18" stroke-width=".476" style="stroke-linecap:square"/>
</svg>
